<svg id="mermaidChart0" width="100%" xmlns="http://www.w3.org/2000/svg" height="100%" style="max-width:728px;" viewBox="-50 -10 875 571"><g></g><g><line id="actor0" x1="75" y1="5" x2="75" y2="560" class="actor-line" stroke-width="0.5px" stroke="#999"></line><rect x="0" y="0" fill="#eaeaea" stroke="#666" width="150" height="65" rx="3" ry="3" class="actor"></rect><text x="75" y="37.5" class="actor" style="text-anchor: middle;">远程仓库</text></g><g><line id="actor1" x1="275" y1="5" x2="275" y2="560" class="actor-line" stroke-width="0.5px" stroke="#999"></line><rect x="200" y="0" fill="#eaeaea" stroke="#666" width="150" height="65" rx="3" ry="3" class="actor"></rect><text x="275" y="37.5" class="actor" style="text-anchor: middle;">src</text></g><g><line id="actor2" x1="475" y1="5" x2="475" y2="560" class="actor-line" stroke-width="0.5px" stroke="#999"></line><rect x="400" y="0" fill="#eaeaea" stroke="#666" width="150" height="65" rx="3" ry="3" class="actor"></rect><text x="475" y="37.5" class="actor" style="text-anchor: middle;">build</text></g><g><line id="actor3" x1="675" y1="5" x2="675" y2="560" class="actor-line" stroke-width="0.5px" stroke="#999"></line><rect x="600" y="0" fill="#eaeaea" stroke="#666" width="150" height="65" rx="3" ry="3" class="actor"></rect><text x="675" y="37.5" class="actor" style="text-anchor: middle;">development</text></g><defs><marker id="arrowhead" refX="5" refY="2" markerWidth="6" markerHeight="4" orient="auto"><path d="M 0,0 V 4 L6,2 Z"></path></marker></defs><defs><marker id="crosshead" markerWidth="15" markerHeight="8" orient="auto" refX="16" refY="4"><path fill="black" stroke="#000000" stroke-width="1px" d="M 9,2 V 6 L16,4 Z" style="stroke-dasharray: 0px, 0px;"></path><path fill="none" stroke="#000000" stroke-width="1px" d="M 0,1 L 6,7 M 6,1 L 0,7" style="stroke-dasharray: 0px, 0px;"></path></marker></defs><g><text x="175" y="118" class="messageText" style="text-anchor: middle;">git clone</text><line x1="75" y1="125" x2="275" y2="125" class="messageLine0" stroke-width="2" stroke="black" marker-end="url(#arrowhead)" style="fill: none;"></line></g><g><line x1="65" y1="75" x2="285" y2="75" stroke-width="2" stroke="#526e52" class="loopLine"></line><line x1="285" y1="75" x2="285" y2="135" stroke-width="2" stroke="#526e52" class="loopLine"></line><line x1="65" y1="135" x2="285" y2="135" stroke-width="2" stroke="#526e52" class="loopLine"></line><line x1="65" y1="75" x2="65" y2="135" stroke-width="2" stroke="#526e52" class="loopLine"></line><rect x="65" y="75" fill="#526e52" stroke="none" width="50" height="20" rx="0" ry="0" class="labelBox"></rect><text x="72.5" y="90" fill="white" class="labelText"><tspan x="72.5">opt</tspan></text><text x="175" y="90" fill="black" class="loopText" style="text-anchor: middle;"><tspan x="175">[ 未初始化 ]</tspan></text></g><g><text x="175" y="163" class="messageText" style="text-anchor: middle;">git pull</text><line x1="75" y1="170" x2="275" y2="170" class="messageLine0" stroke-width="2" stroke="black" marker-end="url(#arrowhead)" style="fill: none;"></line></g><g><text x="275" y="198" class="messageText" style="text-anchor: middle;">git.checkout</text><path d="M 275,205 C 335,195 335,235 275,225" class="messageLine0" stroke-width="2" stroke="black" marker-end="url(#arrowhead)" style="fill: none;"></path></g><g><text x="475" y="263" class="messageText" style="text-anchor: middle;">复制静态资源</text><line x1="275" y1="270" x2="675" y2="270" class="messageLine0" stroke-width="2" stroke="black" marker-end="url(#arrowhead)" style="fill: none;"></line></g><g><text x="375" y="323" class="messageText" style="text-anchor: middle;">js: optimize</text><line x1="275" y1="330" x2="475" y2="330" class="messageLine0" stroke-width="2" stroke="black" marker-end="url(#arrowhead)" style="fill: none;"></line></g><g><text x="575" y="358" class="messageText" style="text-anchor: middle;">复制js</text><line x1="475" y1="365" x2="675" y2="365" class="messageLine0" stroke-width="2" stroke="black" marker-end="url(#arrowhead)" style="fill: none;"></line></g><g><line x1="265" y1="280" x2="685" y2="280" stroke-width="2" stroke="#526e52" class="loopLine"></line><line x1="685" y1="280" x2="685" y2="375" stroke-width="2" stroke="#526e52" class="loopLine"></line><line x1="265" y1="375" x2="685" y2="375" stroke-width="2" stroke="#526e52" class="loopLine"></line><line x1="265" y1="280" x2="265" y2="375" stroke-width="2" stroke="#526e52" class="loopLine"></line><rect x="265" y="280" fill="#526e52" stroke="none" width="50" height="20" rx="0" ry="0" class="labelBox"></rect><text x="272.5" y="295" fill="white" class="labelText"><tspan x="272.5">opt</tspan></text><text x="475" y="295" fill="black" class="loopText" style="text-anchor: middle;"><tspan x="475">[ is AMD ]</tspan></text></g><g><text x="475" y="403" class="messageText" style="text-anchor: middle;">VM: 替换静态资源链接</text><line x1="275" y1="410" x2="675" y2="410" class="messageLine0" stroke-width="2" stroke="black" marker-end="url(#arrowhead)" style="fill: none;"></line></g><g><text x="675" y="438" class="messageText" style="text-anchor: middle;">后处理</text><path d="M 675,445 C 735,435 735,475 675,465" class="messageLine0" stroke-width="2" stroke="black" marker-end="url(#arrowhead)" style="fill: none;"></path></g><g><rect x="0" y="495" fill="#eaeaea" stroke="#666" width="150" height="65" rx="3" ry="3" class="actor"></rect><text x="75" y="532.5" class="actor" style="text-anchor: middle;">远程仓库</text></g><g><rect x="200" y="495" fill="#eaeaea" stroke="#666" width="150" height="65" rx="3" ry="3" class="actor"></rect><text x="275" y="532.5" class="actor" style="text-anchor: middle;">src</text></g><g><rect x="400" y="495" fill="#eaeaea" stroke="#666" width="150" height="65" rx="3" ry="3" class="actor"></rect><text x="475" y="532.5" class="actor" style="text-anchor: middle;">build</text></g><g><rect x="600" y="495" fill="#eaeaea" stroke="#666" width="150" height="65" rx="3" ry="3" class="actor"></rect><text x="675" y="532.5" class="actor" style="text-anchor: middle;">development</text></g></svg>